# xmcd
#
# Track frame offsets:
#	150
#	14776
#	29424
#	44654
#	58829
#	72792
#	86804
#	102383
#	116719
#	130555
#
# Disc length: 1933 seconds
#
# Revision: 0
# Processed by: cddbd v1.5.2PL0 Copyright (c) Steve Scherf et al.
# Submitted via: EasyCDDAExtractor 16.0.8.2
#
DISCID=91078b0a
DTITLE=Συλλογικός δίσκος - Ιστορία ρεμπέτικου και λαϊκού 03-1
DYEAR=2007
DGENRE=Ποικίλη
TTITLE0=Ρούκουνας Κώστας ή Σαμιωτάκης - Κοντραμπατζήδες [Κ. Ρούκουνας]
TTITLE1=Εσκενάζυ Ρόζα - Κατινούλα [Σ. Καρακάσης-Παν. Τούντας]
TTITLE2=Δελλιάς Ανέστης - Ο Νίκος ο τρελλάκιας [Αν. Δελιάς]
TTITLE3=Διαμαντίδης Αντώνης ή Νταλγκάς - Μάγκας [Αντ. Νταλγκάς]
TTITLE4=Βαμβακάρης Μάρκος - Αλανιάρα απ' τον Πειραιά [Μ. Βαμβακάρης]
TTITLE5=Βαμβακάρης Μάρκος - Ο Μάρκος υπουργός [Μ. Βαμβακάρης]
TTITLE6=Βαμβακάρης Μάρκος - Είμαι παιδάκι μάλαμα [Σ. Περιστέρης-Μ. Μάτσας]
TTITLE7=Περπινιάδης Στελλάκης - Κουβέντες στη φυλακή [Παν. Τούντας]
TTITLE8=Βαμβακάρης Μάρκος - Ο γρουσούζης [Μ. Βαμβακάρης]
TTITLE9=Περπινιάδης Στελλάκης - Με κάποια στα Πετράλωνα[Ι.Μοντανάρης-Γ.Πετροπο
TTITLE9=υλέας]
EXTD=
EXTT0=
EXTT1=
EXTT2=
EXTT3=
EXTT4=
EXTT5=
EXTT6=
EXTT7=
EXTT8=
EXTT9=
PLAYORDER=
